<?xml version="1.0" encoding="UTF-8"?>
<!DOCTYPE svg PUBLIC "-//W3C//DTD SVG 1.1//EN" "http://www.w3.org/Graphics/SVG/1.1/DTD/svg11.dtd">
<!-- Creator: CorelDRAW X7 -->
<svg xmlns="http://www.w3.org/2000/svg" xml:space="preserve" width="146px" height="40px" version="1.1" style="shape-rendering:geometricPrecision; text-rendering:geometricPrecision; image-rendering:optimizeQuality; fill-rule:evenodd; clip-rule:evenodd"
viewBox="0 0 146 40"
 xmlns:xlink="http://www.w3.org/1999/xlink">
 <defs>
  <style type="text/css">
   <![CDATA[
    .fil0 {fill:#283644;fill-rule:nonzero}
    .fil1 {fill:#D12856;fill-rule:nonzero}
   ]]>
  </style>
 </defs>
 <g id="__x0023_Layer_x0020_1">
  <metadata id="CorelCorpID_0Corel-Layer"/>
  <g id="_615478544">
   <path class="fil0" d="M72 19c0,-1 0,-2 1,-2l7 0c5,0 9,3 9,7l0 1c0,4 -4,7 -9,7l-6 0 0 7c0,0 0,1 -1,1 -1,0 -1,-1 -1,-1l0 -20zm8 11l0 0c4,0 6,-2 6,-5l0 0c0,-4 -2,-5 -6,-5l-6 0 0 10 6 0 0 0z"/>
   <path class="fil0" d="M93 18c0,0 1,-1 2,-1 0,0 1,1 1,1l0 21c0,0 -1,1 -1,1 -1,0 -2,-1 -2,-1l0 -21z"/>
   <path class="fil0" d="M103 18c0,0 0,-1 1,-1l0 0c1,0 1,1 1,1l14 17 0 -17c0,0 1,-1 1,-1 1,0 2,1 2,1l0 21c0,0 -1,1 -2,1l0 0c0,0 -1,0 -1,-1l-14 -18 0 18c0,0 -1,1 -1,1 -1,0 -1,-1 -1,-1l0 -21 0 0z"/>
   <path class="fil0" d="M128 18c0,0 0,-1 1,-1 1,0 1,1 1,1l0 13 13 -13c1,-1 1,-1 1,-1 1,0 1,1 1,1 0,1 0,1 0,1l-8 8 9 11c0,0 0,0 0,1 0,0 -1,1 -1,1 -1,0 -1,0 -1,-1l-9 -10 -5 5 0 5c0,0 0,1 -1,1 -1,0 -1,-1 -1,-1l0 -21 0 0z"/>
  </g>
  <path class="fil1" d="M60 28c0,0 -5,-21 -5,-21 0,-3 -2,-7 -8,-7 -1,0 -2,1 -2,1 0,1 1,2 2,2 4,0 5,4 5,4l5 20 -2 0c-1,-6 -6,-11 -12,-11 -6,0 -11,5 -12,11l-2 0c0,-6 -6,-11 -12,-11 -6,0 -11,5 -12,11l-2 0 5 -20c0,0 1,-4 6,-4 1,0 1,-1 1,-2 0,0 0,-1 -1,-1 -6,0 -8,4 -9,7 0,0 -5,21 -5,21 0,1 1,2 1,2 0,0 0,0 1,0l3 0c1,6 6,10 12,10 6,0 12,-4 12,-10l2 0c1,6 6,10 12,10 6,0 11,-4 12,-10l4 0c0,0 0,0 0,0 1,0 2,-1 1,-2zm-34 2l0 0c0,4 -4,7 -9,7 -4,0 -8,-3 -8,-7 -1,-1 -1,-1 -1,-2 0,0 0,-1 1,-1 0,-4 4,-8 8,-8 5,0 9,4 9,8 0,0 0,1 0,1 0,1 0,1 0,2zm26 0l0 0c-1,4 -5,7 -9,7 -4,0 -8,-3 -9,-7 0,-1 0,-1 0,-2 0,0 0,-1 0,-1 1,-4 5,-8 9,-8 4,0 8,4 9,8 0,0 0,1 0,1 0,1 0,1 0,2z"/>
 </g>
</svg>
