<?xml version="1.0" encoding="UTF-8"?>
<!DOCTYPE svg PUBLIC "-//W3C//DTD SVG 1.0//EN" "http://www.w3.org/TR/2001/REC-SVG-20010904/DTD/svg10.dtd">
<!-- Creator: CorelDRAW X8 -->
<svg xmlns="http://www.w3.org/2000/svg" xml:space="preserve" width="1202px" height="85px" version="1.0" style="shape-rendering:geometricPrecision; text-rendering:geometricPrecision; image-rendering:optimizeQuality; fill-rule:evenodd; clip-rule:evenodd"
viewBox="0 0 120200 8500"
 xmlns:xlink="http://www.w3.org/1999/xlink">
 <defs>
  <style type="text/css">
   <![CDATA[
    .fil0 {fill:#B3B3B3;fill-rule:nonzero}
   ]]>
  </style>
 </defs>
 <g id="Layer_x0020_1">
  <metadata id="CorelCorpID_0Corel-Layer"/>
  <path class="fil0" d="M64225 4132l3 0 51744 0 3 0 4 0c1170,1 2230,476 2996,1243 768,767 1243,1828 1243,3000 0,65 -53,118 -118,118 -65,0 -118,-53 -118,-118 0,-1106 -449,-2108 -1174,-2833 -725,-725 -1726,-1174 -2833,-1174l-3 0 -51744 0 -3 0 -4 0c-1170,-1 -2229,-476 -2996,-1243 -543,-542 -939,-1231 -1125,-2002 -186,771 -582,1460 -1125,2002 -767,767 -1826,1242 -2996,1243l-4 0 -3 0 -51744 0 -3 0c-1107,0 -2108,449 -2833,1174 -725,725 -1174,1727 -1174,2833 0,65 -53,118 -118,118 -65,0 -118,-53 -118,-118 0,-1172 475,-2233 1243,-3000 766,-767 1826,-1242 2996,-1243l4 0 3 0 51744 0 3 0c1106,0 2108,-449 2833,-1174 725,-725 1174,-1727 1174,-2833 0,-65 53,-118 118,-118 65,0 118,53 118,118 0,1106 449,2108 1174,2833 725,725 1727,1174 2833,1174z"/>
 </g>
</svg>
