<?xml version="1.0" encoding="UTF-8"?>
<!DOCTYPE svg PUBLIC "-//W3C//DTD SVG 1.0//EN" "http://www.w3.org/TR/2001/REC-SVG-20010904/DTD/svg10.dtd">
<!-- Creator: CorelDRAW X8 -->
<svg xmlns="http://www.w3.org/2000/svg" xml:space="preserve" width="25px" height="25px" version="1.0" style="shape-rendering:geometricPrecision; text-rendering:geometricPrecision; image-rendering:optimizeQuality; fill-rule:evenodd; clip-rule:evenodd"
viewBox="0 0 2500 2500"
 xmlns:xlink="http://www.w3.org/1999/xlink">
 <defs>
  <style type="text/css">
   <![CDATA[
    .fil0 {fill:white;fill-rule:nonzero}
   ]]>
  </style>
 </defs>
 <g id="Layer_x0020_1">
  <metadata id="CorelCorpID_0Corel-Layer"/>
  <g id="_2145048953248">
   <path class="fil0" d="M2238 302l-190 0 0 -129c0,-96 -77,-173 -173,-173l-6 0c-96,0 -173,77 -173,173l0 129 -892 0 0 -129c0,-96 -77,-173 -172,-173l-7 0c-96,0 -173,77 -173,173l0 129 -190 0c-96,0 -173,78 -173,173l0 1852c0,96 77,173 173,173l1976 0c96,0 173,-77 173,-173l0 -1852c0,-95 -77,-173 -173,-173zm-117 1925l-1742 0 0 -1403 1742 0 0 1403z"/>
   <path class="fil0" d="M616 1459l301 0c15,0 27,-12 27,-28l0 -300c0,-15 -12,-28 -27,-28l-301 0c-15,0 -28,13 -28,28l0 300c0,16 13,28 28,28z"/>
   <path class="fil0" d="M1100 1459l300 0c16,0 28,-12 28,-28l0 -300c0,-15 -12,-28 -28,-28l-300 0c-16,0 -28,13 -28,28l0 300c0,16 12,28 28,28z"/>
   <path class="fil0" d="M1583 1459l301 0c15,0 28,-12 28,-28l0 -300c0,-15 -13,-28 -28,-28l-301 0c-15,0 -27,13 -27,28l0 300c0,16 12,28 27,28z"/>
   <path class="fil0" d="M616 1943l301 0c15,0 27,-13 27,-28l0 -300c0,-16 -12,-28 -27,-28l-301 0c-15,0 -28,12 -28,28l0 300c0,15 13,28 28,28z"/>
   <path class="fil0" d="M1100 1943l300 0c16,0 28,-13 28,-28l0 -300c0,-16 -12,-28 -28,-28l-300 0c-16,0 -28,12 -28,28l0 300c0,15 12,28 28,28z"/>
   <path class="fil0" d="M1583 1943l301 0c15,0 28,-13 28,-28l0 -300c0,-16 -13,-28 -28,-28l-301 0c-15,0 -27,12 -27,28l0 300c0,15 12,28 27,28z"/>
  </g>
 </g>
</svg>
