<?xml version="1.0" encoding="UTF-8"?>
<!DOCTYPE svg PUBLIC "-//W3C//DTD SVG 1.0//EN" "http://www.w3.org/TR/2001/REC-SVG-20010904/DTD/svg10.dtd">
<!-- Creator: CorelDRAW X8 -->
<svg xmlns="http://www.w3.org/2000/svg" xml:space="preserve" width="25px" height="25px" version="1.0" style="shape-rendering:geometricPrecision; text-rendering:geometricPrecision; image-rendering:optimizeQuality; fill-rule:evenodd; clip-rule:evenodd"
viewBox="0 0 2500 2500"
 xmlns:xlink="http://www.w3.org/1999/xlink">
 <defs>
  <style type="text/css">
   <![CDATA[
    .fil0 {fill:white;fill-rule:nonzero}
   ]]>
  </style>
 </defs>
 <g id="Layer_x0020_1">
  <metadata id="CorelCorpID_0Corel-Layer"/>
  <path class="fil0" d="M1250 0c-690,0 -1250,560 -1250,1250 0,690 560,1250 1250,1250 690,0 1250,-560 1250,-1250 0,-690 -560,-1250 -1250,-1250zm660 1824l-100 100c-18,18 -70,29 -72,29 -316,3 -621,-122 -845,-345 -225,-225 -349,-531 -346,-849 0,0 11,-51 29,-69l100 -100c37,-37 107,-53 157,-37l21 7c49,17 100,71 114,121l50 185c14,50 -4,122 -41,158l-67 67c66,243 256,434 499,499l67 -66c37,-37 108,-55 158,-42l185 51c50,13 104,65 121,114l7 21c16,49 0,120 -37,156z"/>
 </g>
</svg>
