<?xml version="1.0" encoding="UTF-8"?>
<!DOCTYPE svg PUBLIC "-//W3C//DTD SVG 1.0//EN" "http://www.w3.org/TR/2001/REC-SVG-20010904/DTD/svg10.dtd">
<!-- Creator: CorelDRAW X8 -->
<svg xmlns="http://www.w3.org/2000/svg" xml:space="preserve" width="35px" height="35px" version="1.0" style="shape-rendering:geometricPrecision; text-rendering:geometricPrecision; image-rendering:optimizeQuality; fill-rule:evenodd; clip-rule:evenodd"
viewBox="0 0 3500 3500"
 xmlns:xlink="http://www.w3.org/1999/xlink">
 <defs>
  <style type="text/css">
   <![CDATA[
    .fil0 {fill:#C8F1A3;fill-rule:nonzero}
   ]]>
  </style>
 </defs>
 <g id="Layer_x0020_1">
  <metadata id="CorelCorpID_0Corel-Layer"/>
  <path class="fil0" d="M1750 3500c967,0 1750,-783 1750,-1750 0,-967 -783,-1750 -1750,-1750 -967,0 -1750,783 -1750,1750 0,967 783,1750 1750,1750zm881 -2116c16,19 22,43 18,71l-76 433c-2,23 -13,41 -30,56 -18,14 -38,21 -61,21l-1100 0 -22 124 1048 0c26,0 48,8 66,26 19,18 28,40 28,67 0,26 -9,48 -28,66 -18,18 -40,27 -66,27l-1159 0c-28,0 -52,-11 -72,-34 -18,-22 -25,-48 -21,-77l49 -270 -75 -759 -215 -67c-25,-8 -43,-23 -54,-46 -7,-14 -11,-29 -11,-44 0,-9 1,-18 4,-27 8,-25 23,-44 46,-55 24,-11 47,-14 71,-7l274 87c17,6 31,16 43,30 11,15 18,31 20,50l16 151 1243 139c28,4 49,16 64,38zm-1241 943c40,0 73,14 101,42 28,27 42,61 42,101 0,39 -14,74 -42,102 -28,29 -61,43 -101,43 -40,0 -74,-14 -101,-43 -28,-28 -42,-63 -42,-102 0,-40 14,-74 42,-101 27,-28 61,-42 101,-42zm848 0c40,0 73,14 101,42 28,27 42,61 42,101 0,39 -14,74 -42,102 -28,29 -61,43 -101,43 -40,0 -74,-14 -102,-43 -27,-28 -41,-63 -41,-102 0,-40 14,-74 41,-101 28,-28 62,-42 102,-42z"/>
 </g>
</svg>
