<?xml version="1.0" encoding="UTF-8"?>
<!DOCTYPE svg PUBLIC "-//W3C//DTD SVG 1.0//EN" "http://www.w3.org/TR/2001/REC-SVG-20010904/DTD/svg10.dtd">
<!-- Creator: CorelDRAW X8 -->
<svg xmlns="http://www.w3.org/2000/svg" xml:space="preserve" width="25px" height="25px" version="1.0" style="shape-rendering:geometricPrecision; text-rendering:geometricPrecision; image-rendering:optimizeQuality; fill-rule:evenodd; clip-rule:evenodd"
viewBox="0 0 2500 2500"
 xmlns:xlink="http://www.w3.org/1999/xlink">
 <defs>
  <style type="text/css">
   <![CDATA[
    .fil0 {fill:#3E97D3;fill-rule:nonzero}
   ]]>
  </style>
 </defs>
 <g id="Layer_x0020_1">
  <metadata id="CorelCorpID_0Corel-Layer"/>
  <path class="fil0" d="M2500 1114c0,147 -23,282 -71,404 -46,121 -112,217 -198,286 -86,70 -186,104 -299,104 -75,0 -142,-18 -201,-54 -58,-36 -99,-84 -125,-143l-25 0c-110,132 -250,197 -420,197 -181,0 -324,-54 -428,-163 -104,-108 -156,-257 -156,-445 0,-216 68,-389 205,-520 137,-132 316,-198 536,-198 88,0 184,8 291,25 105,17 192,37 260,61l-35 748c0,141 39,212 116,212 66,0 118,-47 157,-143 38,-95 58,-220 58,-374 0,-164 -34,-309 -103,-435 -68,-126 -164,-222 -288,-288 -124,-67 -266,-100 -425,-100 -207,0 -385,43 -537,127 -153,85 -270,207 -351,367 -81,160 -121,344 -121,553 0,281 75,498 225,648 151,151 370,225 655,225 108,0 227,-11 357,-35 129,-24 257,-59 383,-105l0 293c-219,94 -461,140 -728,140 -388,0 -690,-102 -907,-306 -217,-204 -325,-488 -325,-851 0,-252 55,-481 166,-686 111,-206 268,-367 473,-484 205,-117 440,-175 707,-175 224,0 425,46 601,138 177,91 313,222 409,391 96,170 144,365 144,586zm-1568 191c0,216 88,323 264,323 92,0 162,-32 209,-97 48,-65 78,-170 87,-315l21 -339c-52,-11 -111,-16 -176,-16 -128,0 -228,39 -298,119 -71,79 -107,188 -107,325z"/>
 </g>
</svg>
