<?xml version="1.0" encoding="UTF-8"?>
<!DOCTYPE svg PUBLIC "-//W3C//DTD SVG 1.0//EN" "http://www.w3.org/TR/2001/REC-SVG-20010904/DTD/svg10.dtd">
<!-- Creator: CorelDRAW X8 -->
<svg xmlns="http://www.w3.org/2000/svg" xml:space="preserve" width="22px" height="22px" version="1.0" style="shape-rendering:geometricPrecision; text-rendering:geometricPrecision; image-rendering:optimizeQuality; fill-rule:evenodd; clip-rule:evenodd"
viewBox="0 0 2200 2200"
 xmlns:xlink="http://www.w3.org/1999/xlink">
 <defs>
  <style type="text/css">
   <![CDATA[
    .fil0 {fill:white;fill-rule:nonzero}
   ]]>
  </style>
 </defs>
 <g id="Layer_x0020_1">
  <metadata id="CorelCorpID_0Corel-Layer"/>
  <path class="fil0" d="M2034 1509c-140,0 -280,-24 -421,-70 -35,-12 -81,0 -116,23l-257 257c-326,-164 -595,-444 -770,-770l257 -258c35,-34 47,-81 23,-116 -35,-128 -59,-268 -59,-408 0,-70 -46,-117 -116,-117l-408 0c-70,0 -117,47 -117,117 0,1097 887,1983 1984,1983 69,0 116,-47 116,-116l0 -409c0,-70 -47,-116 -116,-116z"/>
 </g>
</svg>
