<?xml version="1.0" encoding="UTF-8"?>
<!DOCTYPE svg PUBLIC "-//W3C//DTD SVG 1.0//EN" "http://www.w3.org/TR/2001/REC-SVG-20010904/DTD/svg10.dtd">
<!-- Creator: CorelDRAW X8 -->
<svg xmlns="http://www.w3.org/2000/svg" xml:space="preserve" width="25px" height="24px" version="1.0" style="shape-rendering:geometricPrecision; text-rendering:geometricPrecision; image-rendering:optimizeQuality; fill-rule:evenodd; clip-rule:evenodd"
viewBox="0 0 2500 2400"
 xmlns:xlink="http://www.w3.org/1999/xlink">
 <defs>
  <style type="text/css">
   <![CDATA[
    .fil0 {fill:white;fill-rule:nonzero}
   ]]>
  </style>
 </defs>
 <g id="Layer_x0020_1">
  <metadata id="CorelCorpID_0Corel-Layer"/>
  <path class="fil0" d="M2473 691c23,27 31,61 25,99l-105 601c-3,32 -17,57 -42,78 -25,20 -53,30 -84,30l-1528 0 -31 171 1456 0c35,0 66,12 92,37 25,25 38,56 38,93 0,36 -13,67 -38,92 -26,25 -57,37 -92,37l-1610 0c-39,0 -72,-15 -99,-47 -26,-31 -36,-67 -31,-107l69 -375 -105 -1054 -298 -94c-34,-11 -60,-32 -75,-63 -10,-20 -15,-40 -15,-61 0,-12 2,-25 5,-38 11,-35 33,-61 65,-76 32,-16 65,-19 98,-10l380 122c24,7 44,21 60,41 15,20 25,43 29,69l22 209 1726 194c39,5 68,22 88,52zm-1723 1310c55,0 102,19 140,58 39,38 58,85 58,140 0,56 -19,103 -58,142 -38,40 -85,60 -140,60 -55,0 -102,-20 -141,-60 -39,-39 -58,-86 -58,-142 0,-55 19,-102 58,-140 39,-39 86,-58 141,-58zm1177 0c55,0 102,19 141,58 39,38 58,85 58,140 0,56 -19,103 -58,142 -39,40 -86,60 -141,60 -55,0 -102,-20 -140,-60 -39,-39 -58,-86 -58,-142 0,-55 19,-102 58,-140 38,-39 85,-58 140,-58z"/>
 </g>
</svg>
