<?xml version="1.0" encoding="UTF-8"?>
<!DOCTYPE svg PUBLIC "-//W3C//DTD SVG 1.0//EN" "http://www.w3.org/TR/2001/REC-SVG-20010904/DTD/svg10.dtd">
<!-- Creator: CorelDRAW X8 -->
<svg xmlns="http://www.w3.org/2000/svg" xml:space="preserve" width="21px" height="22px" version="1.0" style="shape-rendering:geometricPrecision; text-rendering:geometricPrecision; image-rendering:optimizeQuality; fill-rule:evenodd; clip-rule:evenodd"
viewBox="0 0 2100 2200"
 xmlns:xlink="http://www.w3.org/1999/xlink">
 <defs>
  <style type="text/css">
   <![CDATA[
    .fil0 {fill:white;fill-rule:nonzero}
   ]]>
  </style>
 </defs>
 <g id="Layer_x0020_1">
  <metadata id="CorelCorpID_0Corel-Layer"/>
  <path class="fil0" d="M67 1963l500 -520c-129,-153 -199,-345 -199,-545 0,-468 380,-848 848,-848 467,0 848,380 848,848 0,468 -381,848 -848,848 -175,0 -343,-53 -486,-154l-504 524c-21,22 -49,34 -79,34 -29,0 -56,-11 -77,-31 -44,-42 -45,-112 -3,-156zm1149 -1692c-346,0 -627,281 -627,627 0,345 281,627 627,627 345,0 627,-282 627,-627 0,-346 -282,-627 -627,-627z"/>
 </g>
</svg>
