<?xml version="1.0" encoding="UTF-8"?>
<!DOCTYPE svg PUBLIC "-//W3C//DTD SVG 1.0//EN" "http://www.w3.org/TR/2001/REC-SVG-20010904/DTD/svg10.dtd">
<!-- Creator: CorelDRAW X8 -->
<svg xmlns="http://www.w3.org/2000/svg" xml:space="preserve" width="25px" height="25px" version="1.0" style="shape-rendering:geometricPrecision; text-rendering:geometricPrecision; image-rendering:optimizeQuality; fill-rule:evenodd; clip-rule:evenodd"
viewBox="0 0 2500 2500"
 xmlns:xlink="http://www.w3.org/1999/xlink">
 <defs>
  <style type="text/css">
   <![CDATA[
    .fil0 {fill:#3E97D3;fill-rule:nonzero}
   ]]>
  </style>
 </defs>
 <g id="Layer_x0020_1">
  <metadata id="CorelCorpID_0Corel-Layer"/>
  <g id="_1754184223728">
   <path class="fil0" d="M1213 1352c37,7 62,-8 74,-17 21,-17 32,-42 32,-68 0,-9 -2,-15 -7,-24l-20 -31c-20,-31 -40,-63 -59,-97 -22,41 -47,83 -77,122 -7,9 -9,15 -10,25 -3,41 28,82 67,90z"/>
   <path class="fil0" d="M2127 729l-356 -356c-40,-39 -92,-61 -147,-61l-478 0 0 -104c0,-115 -94,-208 -209,-208l-208 0c-115,0 -208,93 -208,208l0 122c-121,43 -208,159 -208,295l0 1562c0,173 140,313 312,313l1250 0c172,0 313,-140 313,-313l0 -1311c0,-55 -22,-108 -61,-147zm-1136 381c37,-48 66,-106 94,-162l54 -109c18,-36 54,-58 94,-58 39,0 75,22 93,58l68 136c21,42 47,82 74,125l20 32c27,42 40,87 40,135 0,89 -40,173 -109,229 -53,43 -119,66 -187,66 -20,0 -41,-2 -61,-6 -141,-29 -243,-165 -233,-309 4,-51 21,-96 53,-137zm572 869l-626 0c-57,0 -104,-47 -104,-104 0,-58 47,-104 104,-104l626 0c57,0 104,46 104,104 0,57 -47,104 -104,104z"/>
  </g>
 </g>
</svg>
