<?xml version="1.0" encoding="UTF-8"?>
<!DOCTYPE svg PUBLIC "-//W3C//DTD SVG 1.0//EN" "http://www.w3.org/TR/2001/REC-SVG-20010904/DTD/svg10.dtd">
<!-- Creator: CorelDRAW X8 -->
<svg xmlns="http://www.w3.org/2000/svg" xml:space="preserve" width="25px" height="25px" version="1.0" style="shape-rendering:geometricPrecision; text-rendering:geometricPrecision; image-rendering:optimizeQuality; fill-rule:evenodd; clip-rule:evenodd"
viewBox="0 0 2500 2500"
 xmlns:xlink="http://www.w3.org/1999/xlink">
 <defs>
  <style type="text/css">
   <![CDATA[
    .fil0 {fill:#3E97D3;fill-rule:nonzero}
   ]]>
  </style>
 </defs>
 <g id="Layer_x0020_1">
  <metadata id="CorelCorpID_0Corel-Layer"/>
  <path class="fil0" d="M2292 2188l-2084 0 0 -104 2084 0 0 104 0 0zm-1771 -938l417 0c57,0 104,47 104,104 0,57 -47,104 -104,104l-417 0c-58,0 -104,-47 -104,-104 0,-57 46,-104 104,-104zm0 -625l209 0 0 104 -209 0 0 -104zm313 -313l833 0 0 104c-57,0 -104,47 -104,104l0 209 -625 0 0 -209c0,-57 -47,-104 -104,-104l0 -104zm937 729c58,0 104,47 104,104l0 105 104 0c58,0 104,47 104,104 0,57 -46,104 -104,104l-104 0 0 105c0,57 -46,104 -104,104 -57,0 -104,-47 -104,-104l0 -104 -104 0c-58,0 -104,-47 -104,-104 0,-58 46,-105 104,-105l104 0 0 -104c0,-58 47,-105 104,-105zm0 -416l209 0 0 104 -209 0 0 -104zm626 1250l0 -1042c0,-57 -47,-104 -105,-104l-104 0 0 -208c0,-58 -46,-104 -104,-104l-209 0 0 -209c0,-57 -46,-104 -104,-104l-1042 0c-58,0 -104,47 -104,104l0 209 -208 0c-58,0 -104,47 -104,104l0 208 -105 0c-57,0 -104,47 -104,104l0 1042c-58,0 -104,47 -104,104l0 313c0,57 46,104 104,104l2292 0c58,0 104,-47 104,-104l0 -313c1,-57 -46,-104 -103,-104z"/>
 </g>
</svg>
