<?xml version="1.0" encoding="UTF-8"?>
<!DOCTYPE svg PUBLIC "-//W3C//DTD SVG 1.0//EN" "http://www.w3.org/TR/2001/REC-SVG-20010904/DTD/svg10.dtd">
<!-- Creator: CorelDRAW X8 -->
<svg xmlns="http://www.w3.org/2000/svg" xml:space="preserve" width="25px" height="25px" version="1.0" style="shape-rendering:geometricPrecision; text-rendering:geometricPrecision; image-rendering:optimizeQuality; fill-rule:evenodd; clip-rule:evenodd"
viewBox="0 0 2500 2500"
 xmlns:xlink="http://www.w3.org/1999/xlink">
 <defs>
  <style type="text/css">
   <![CDATA[
    .fil0 {fill:#3E97D3;fill-rule:nonzero}
   ]]>
  </style>
 </defs>
 <g id="Layer_x0020_1">
  <metadata id="CorelCorpID_0Corel-Layer"/>
  <g id="_1789189442800">
   <path class="fil0" d="M1667 0l-834 0c-467,0 -833,549 -833,1250 0,701 366,1250 833,1250l834 0c467,0 833,-549 833,-1250 0,-701 -366,-1250 -833,-1250l0 0zm-1206 2079c-52,-66 -99,-146 -137,-235l58 23c12,5 26,8 39,8 9,0 18,-1 27,-3l453 -120c10,34 20,67 32,100 1,1 1,3 2,4 13,36 27,70 41,103l-515 120zm-35 -1610l125 125c20,20 47,31 74,31 7,0 14,-1 20,-2l324 -65c-12,28 -24,56 -34,86 -1,1 -1,3 -2,4 -11,32 -21,64 -31,98l-347 77 -208 -218c24,-49 50,-95 79,-136l0 0zm20 541c19,20 47,32 75,32 7,0 15,-1 23,-3l310 -69c-4,29 -7,58 -10,87 -2,15 -4,30 -5,45 -1,11 -1,23 -2,34l-388 102 -222 -233c10,-63 23,-124 39,-183l180 188zm-105 416c20,21 47,32 76,32 8,0 17,-1 26,-3l394 -103c0,15 1,31 2,46 1,15 3,30 5,45 3,33 7,67 12,99 1,2 1,4 1,6l-429 113 -184 -75c-20,-95 -32,-194 -34,-298l131 138zm859 -1218c0,1 -1,1 -1,2 -25,25 -50,53 -73,82 -6,8 -13,17 -19,26l-448 90 -93 -94c81,-67 172,-106 267,-106l367 0zm0 2084l-367 0c-61,0 -119,-16 -176,-45l408 -95c6,-1 10,-4 15,-7 9,13 18,24 26,36 7,9 13,18 20,27 23,29 48,57 73,82 0,1 1,1 1,2l0 0zm467 -209c-274,0 -417,-419 -417,-833 0,-414 143,-833 417,-833 273,0 416,419 416,833 0,414 -143,833 -416,833l0 0z"/>
   <path class="fil0" d="M1667 625c-74,0 -209,237 -209,625 0,388 135,625 209,625 73,0 208,-237 208,-625 0,-388 -135,-625 -208,-625z"/>
  </g>
 </g>
</svg>
