<?xml version="1.0" encoding="UTF-8"?>
<!DOCTYPE svg PUBLIC "-//W3C//DTD SVG 1.0//EN" "http://www.w3.org/TR/2001/REC-SVG-20010904/DTD/svg10.dtd">
<!-- Creator: CorelDRAW X8 -->
<svg xmlns="http://www.w3.org/2000/svg" xml:space="preserve" width="25px" height="25px" version="1.0" style="shape-rendering:geometricPrecision; text-rendering:geometricPrecision; image-rendering:optimizeQuality; fill-rule:evenodd; clip-rule:evenodd"
viewBox="0 0 2500 2500"
 xmlns:xlink="http://www.w3.org/1999/xlink">
 <defs>
  <style type="text/css">
   <![CDATA[
    .fil0 {fill:#3E97D3;fill-rule:nonzero}
   ]]>
  </style>
 </defs>
 <g id="Layer_x0020_1">
  <metadata id="CorelCorpID_0Corel-Layer"/>
  <path class="fil0" d="M2423 602l-386 -105c-19,-5 -38,-9 -57,-14 -11,-18 -21,-36 -30,-55l-68 -136c-18,-36 -54,-58 -94,-58 -39,0 -75,22 -93,58l-55 109c-2,6 -6,11 -8,17 -396,-52 -789,-26 -1169,79l-386 105c-48,13 -80,59 -77,108l104 1459c3,31 19,60 45,78 26,18 59,23 89,14l348 -104c138,-41 278,-68 418,-83l-571 -898c-31,-49 -17,-113 32,-144 49,-31 113,-17 144,32l633 995c226,-1 452,32 672,98l348 104c10,3 20,5 30,5 21,0 41,-7 59,-19 26,-18 42,-47 45,-78l104 -1459c0,-2 0,-4 0,-6l0 -2c0,-46 -31,-87 -77,-100zm-721 113c0,-10 3,-16 9,-25 24,-31 45,-64 64,-97 2,-4 5,-9 7,-12 0,0 0,-1 0,-1 2,-4 4,-8 7,-11 11,20 24,39 36,58 0,1 0,2 1,3l19 30c1,2 3,5 4,7l19 29c5,9 7,15 7,24 0,26 -12,51 -32,68 -12,9 -38,25 -74,17 -40,-8 -70,-49 -67,-90z"/>
 </g>
</svg>
