<?xml version="1.0" encoding="UTF-8"?>
<!DOCTYPE svg PUBLIC "-//W3C//DTD SVG 1.0//EN" "http://www.w3.org/TR/2001/REC-SVG-20010904/DTD/svg10.dtd">
<!-- Creator: CorelDRAW X8 -->
<svg xmlns="http://www.w3.org/2000/svg" xml:space="preserve" width="25px" height="25px" version="1.0" style="shape-rendering:geometricPrecision; text-rendering:geometricPrecision; image-rendering:optimizeQuality; fill-rule:evenodd; clip-rule:evenodd"
viewBox="0 0 2500 2500"
 xmlns:xlink="http://www.w3.org/1999/xlink">
 <defs>
  <style type="text/css">
   <![CDATA[
    .fil0 {fill:#3E97D3;fill-rule:nonzero}
   ]]>
  </style>
 </defs>
 <g id="Layer_x0020_1">
  <metadata id="CorelCorpID_0Corel-Layer"/>
  <g id="_1753975292080">
   <path class="fil0" d="M1455 1246c-55,0 -108,22 -147,61 -40,40 -62,92 -62,148 0,56 22,108 62,148 79,79 216,79 295,0 40,-40 61,-92 61,-148 0,-56 -21,-108 -61,-148 -39,-39 -92,-61 -148,-61z"/>
   <path class="fil0" d="M2194 716c-136,-135 -305,-230 -490,-275 6,-33 -1,-68 -27,-94l-175 -175c-115,-115 -265,-172 -416,-172 -151,0 -301,57 -416,172l-498 497c-114,115 -172,266 -172,417 0,150 58,301 172,416l175 175c21,20 47,30 74,30 7,0 14,-2 20,-4 45,185 140,355 276,491 197,197 459,306 738,306 280,0 542,-109 739,-306 200,-200 301,-460 306,-722l0 -34c-5,-262 -106,-522 -306,-722l0 0zm-1874 638c-148,-148 -148,-389 0,-537l497 -497c75,-74 172,-111 269,-111 97,0 194,37 268,111l101 101 -22 22 -989 990 -23 22 -101 -101zm766 618c-41,41 -107,41 -148,0 -41,-40 -41,-107 0,-147 41,-41 107,-41 148,0 41,40 41,107 0,147l0 0zm369 -99c-111,0 -216,-43 -295,-122 -79,-79 -122,-184 -122,-296 0,-111 43,-216 122,-295 79,-79 184,-123 295,-123 112,0 217,44 296,123 79,79 122,184 122,295 0,112 -43,217 -122,296 -79,79 -184,122 -296,122l0 0zm518 99c-41,41 -107,41 -148,0 -41,-40 -41,-107 0,-147 41,-41 107,-41 148,0 40,40 40,107 0,147l0 0zm0 -886c-41,41 -107,41 -148,0 -41,-41 -41,-107 0,-148 41,-41 107,-41 148,0 40,41 40,107 0,148l0 0z"/>
  </g>
 </g>
</svg>
