<?xml version="1.0" encoding="UTF-8"?>
<!DOCTYPE svg PUBLIC "-//W3C//DTD SVG 1.0//EN" "http://www.w3.org/TR/2001/REC-SVG-20010904/DTD/svg10.dtd">
<!-- Creator: CorelDRAW X8 -->
<svg xmlns="http://www.w3.org/2000/svg" xml:space="preserve" width="164px" height="45px" version="1.0" style="shape-rendering:geometricPrecision; text-rendering:geometricPrecision; image-rendering:optimizeQuality; fill-rule:evenodd; clip-rule:evenodd"
viewBox="0 0 16400 4500"
 xmlns:xlink="http://www.w3.org/1999/xlink">
 <defs>
  <style type="text/css">
   <![CDATA[
    .fil2 {fill:#898989}
    .fil3 {fill:url(#id0)}
    .fil0 {fill:url(#id1);fill-rule:nonzero}
    .fil1 {fill:url(#id2);fill-rule:nonzero}
   ]]>
  </style>
  <linearGradient id="id0" gradientUnits="userSpaceOnUse" x1="7569.17" y1="110.198" x2="13506.2" y2="614.533">
   <stop offset="0" style="stop-opacity:1; stop-color:#3E97D3"/>
   <stop offset="1" style="stop-opacity:1; stop-color:#7DC826"/>
  </linearGradient>
  <linearGradient id="id1" gradientUnits="userSpaceOnUse" xlink:href="#id0" x1="1046.7" y1="4499.93" x2="5983.99" y2="1825.53">
  </linearGradient>
  <linearGradient id="id2" gradientUnits="userSpaceOnUse" x1="8203.9" y1="3282.2" x2="15116.5" y2="3282.2">
   <stop offset="0" style="stop-opacity:1; stop-color:#2B2A29"/>
   <stop offset="1" style="stop-opacity:1; stop-color:#898989"/>
  </linearGradient>
 </defs>
 <g id="Layer_x0020_1">
  <metadata id="CorelCorpID_0Corel-Layer"/>
  <g id="_2505058354768">
   <path class="fil0" d="M3289 4500l-1077 0 -32 -577 -803 0 -330 577 -1024 0 1636 -2674 1379 0 251 2674zm3746 -2674l-1690 2674 -1211 0 -255 -2674 1100 0 74 1600 15 0 916 -1600 1051 0zm-4806 1470l-60 -836 -15 0 -494 836 569 0z"/>
   <path class="fil1" d="M16170 4500l-2284 0 700 -2674 1024 0 -494 1883 1261 0 -207 791zm-6196 -1884l-902 0 -493 1884 -1024 0 493 -1884 -901 0 207 -790 2827 0 -207 790zm2097 1884l-2361 0 700 -2674 2334 0 -165 630 -1310 0 -101 386 1253 0 -160 611 -1253 0 -109 416 1337 0 -165 631zm1356 0l-1024 0 701 -2674 1023 0 -700 2674z"/>
   <path class="fil2" d="M9841 650c0,0 926,166 1988,166 1062,0 3147,-143 3908,158 0,0 41,572 361,866 0,0 -350,-42 -497,-606 0,0 -130,-179 -1971,-187 -1840,-7 -3019,-15 -3789,-397z"/>
   <path class="fil3" d="M7569 110c0,0 226,132 290,358 0,0 158,86 730,7 573,-79 1073,-282 1932,-399 858,-117 1999,-199 2985,539 0,0 -736,-356 -1852,-332 -1116,24 -1997,239 -2536,360 -538,120 -1155,184 -1381,64 0,0 -23,-305 -168,-597z"/>
  </g>
 </g>
</svg>