<?xml version="1.0" encoding="UTF-8"?>
<!DOCTYPE svg PUBLIC "-//W3C//DTD SVG 1.0//EN" "http://www.w3.org/TR/2001/REC-SVG-20010904/DTD/svg10.dtd">
<!-- Creator: CorelDRAW X8 -->
<svg xmlns="http://www.w3.org/2000/svg" xml:space="preserve" width="50px" height="24px" version="1.0" style="shape-rendering:geometricPrecision; text-rendering:geometricPrecision; image-rendering:optimizeQuality; fill-rule:evenodd; clip-rule:evenodd"
viewBox="0 0 5000 2400"
 xmlns:xlink="http://www.w3.org/1999/xlink">
 <defs>
  <style type="text/css">
   <![CDATA[
    .fil0 {fill:white}
   ]]>
  </style>
 </defs>
 <g id="Layer_x0020_1">
  <metadata id="CorelCorpID_0Corel-Layer"/>
  <g id="_1930985199904">
   <path class="fil0" d="M2113 1781l774 0 0 -484 -357 -251 -111 159 275 193 0 189 -388 0 0 -774 388 0 0 193 193 0 0 -387 -774 0 0 1162z"/>
   <path class="fil0" d="M832 991l581 407 0 189 -387 0 0 -290 -194 0 0 484 775 0 0 -484 -581 -407 0 -77 387 0 0 193 194 0 0 -387 -775 0 0 372z"/>
   <path class="fil0" d="M3587 813l0 538 387 -271 0 -267 -387 0zm0 774l0 194 -194 0c0,-387 0,-775 0,-1162l775 0 0 561 -581 407z"/>
   <path class="fil0" d="M3780 -20c337,0 642,137 863,358 220,220 357,525 357,862 0,337 -137,642 -357,862 -221,221 -526,358 -863,358 -133,0 -264,-23 -386,-64 -90,-30 -175,-70 -254,-119 -79,49 -164,89 -254,119 -122,41 -252,64 -386,64 -134,0 -264,-23 -386,-64 -90,-30 -175,-70 -254,-119 -79,49 -164,89 -254,119 -122,41 -253,64 -386,64 -337,0 -642,-137 -863,-358 -221,-220 -357,-525 -357,-862 0,-337 137,-642 357,-862 221,-221 526,-358 863,-358 133,0 264,22 386,63 90,30 175,70 254,119 79,-49 164,-89 254,-119 122,-41 252,-63 386,-63 134,0 264,22 386,63 90,30 175,70 254,119 79,-49 164,-89 254,-119 122,-41 253,-63 386,-63zm0 155c589,0 1066,477 1066,1065 0,588 -477,1065 -1066,1065 -240,0 -462,-79 -640,-213 -178,134 -400,213 -640,213 -240,0 -462,-79 -640,-213 -178,134 -400,213 -640,213 -589,0 -1066,-477 -1066,-1065 0,-588 477,-1065 1066,-1065 240,0 462,79 640,213 178,-134 400,-213 640,-213 240,0 462,79 640,213 178,-134 400,-213 640,-213z"/>
  </g>
 </g>
</svg>
